<?xml version="1.0" standalone="no"?>
<!DOCTYPE svg PUBLIC "-//W3C//DTD SVG 20010904//EN"
 "http://www.w3.org/TR/2001/REC-SVG-20010904/DTD/svg10.dtd">
<svg version="1.0" xmlns="http://www.w3.org/2000/svg"
 width="800.000000pt" height="800.000000pt" viewBox="0 0 800.000000 800.000000"
 preserveAspectRatio="xMidYMid meet">
<metadata>
Created by potrace 1.14, written by Peter Selinger 2001-2017
</metadata>
<g transform="translate(0.000000,800.000000) scale(0.100000,-0.100000)"
fill="#000000" stroke="none">
<path d="M2641 6792 c-18 -16 -52 -65 -321 -467 -63 -93 -118 -171 -122 -173
-4 -2 -8 -7 -8 -12 0 -5 -36 -61 -80 -125 -44 -64 -80 -121 -80 -126 0 -5 -4
-9 -10 -9 -5 0 -10 -7 -10 -15 0 -8 -3 -15 -7 -15 -5 0 -21 -23 -38 -50 -16
-28 -33 -50 -37 -50 -4 0 -8 -6 -9 -12 0 -7 -16 -33 -35 -58 -19 -25 -37 -53
-40 -62 -4 -10 -10 -18 -15 -18 -5 0 -9 -7 -9 -15 0 -8 -4 -15 -9 -15 -5 0
-13 -9 -16 -20 -3 -11 -12 -26 -18 -33 -7 -7 -16 -20 -22 -29 -38 -59 -131
-195 -142 -206 -7 -7 -13 -17 -13 -22 0 -5 -6 -15 -12 -22 -7 -7 -62 -87 -123
-178 -60 -91 -113 -169 -118 -175 -4 -5 -22 -32 -39 -60 -18 -27 -35 -52 -38
-55 -3 -3 -50 -72 -105 -155 -55 -82 -103 -151 -107 -153 -5 -2 -8 -9 -8 -17
0 -7 -7 -19 -16 -26 -9 -7 -20 -22 -25 -34 -7 -16 -62 -98 -135 -200 -7 -11
-59 -87 -113 -170 -55 -82 -103 -155 -108 -160 -10 -13 -243 -359 -263 -390
-8 -13 -61 -92 -117 -175 -57 -83 -103 -154 -103 -158 0 -4 757 -7 1681 -7
l1682 0 16 25 c8 14 18 27 21 30 3 3 42 59 86 125 242 362 309 460 316 463 5
2 8 7 8 12 0 6 119 189 147 225 4 6 44 64 88 130 44 66 82 122 86 125 3 3 8
12 12 20 4 8 59 92 123 185 152 222 496 731 509 752 6 9 14 22 18 27 5 6 16
23 25 37 58 90 158 235 164 237 5 2 8 10 8 18 0 8 5 14 10 14 6 0 10 6 10 14
0 8 3 16 8 18 4 2 76 107 161 233 85 127 157 232 160 235 3 3 12 17 20 33 8
15 18 27 23 27 4 0 8 4 8 10 0 5 42 72 93 147 52 76 133 197 181 268 47 72 96
143 109 159 12 16 24 34 26 40 2 6 13 22 23 36 17 21 17 25 3 30 -8 3 -45 3
-80 0 -36 -3 -65 -2 -65 3 0 4 -8 4 -17 -2 -9 -5 -26 -6 -37 -2 -12 3 -34 5
-51 4 -60 -6 -124 -5 -134 2 -6 3 -11 1 -11 -5 0 -6 -5 -8 -11 -5 -6 4 -33 7
-60 6 -27 -1 -71 -1 -98 -2 -27 -1 -54 2 -60 5 -5 4 -12 2 -15 -3 -4 -5 -19
-6 -34 -3 -15 4 -40 6 -57 5 -60 -6 -124 -5 -134 2 -6 3 -11 1 -11 -5 0 -6 -5
-8 -11 -5 -6 4 -32 7 -57 6 -132 -3 -151 -3 -161 3 -5 4 -12 2 -15 -3 -4 -5
-19 -6 -34 -3 -15 4 -40 6 -57 5 -60 -6 -124 -5 -134 2 -6 3 -11 1 -11 -5 0
-6 -5 -8 -11 -5 -6 4 -33 7 -60 6 -27 -1 -71 -1 -98 -2 -27 -1 -54 2 -60 5 -5
4 -12 2 -15 -3 -4 -5 -19 -6 -34 -3 -15 4 -40 6 -57 5 -60 -6 -124 -5 -134 2
-6 3 -11 1 -11 -5 0 -6 -5 -8 -11 -5 -6 4 -33 7 -60 6 -27 -1 -71 -1 -98 -2
-27 -1 -54 2 -60 5 -5 4 -12 2 -15 -3 -4 -6 -18 -6 -35 -1 -15 4 -34 4 -41 0
-7 -4 -26 -4 -41 0 -16 5 -31 5 -34 0 -3 -5 -18 -5 -33 -1 -15 5 -36 5 -47 1
-11 -4 -32 -4 -47 1 -15 4 -30 4 -33 -1 -3 -5 -18 -5 -33 -1 -15 5 -36 5 -47
1 -11 -4 -32 -4 -47 1 -15 4 -30 4 -33 -1 -3 -5 -18 -5 -33 -1 -15 5 -36 5
-47 1 -11 -4 -32 -4 -47 1 -15 4 -30 4 -33 -1 -3 -5 -18 -5 -33 -1 -15 5 -36
5 -47 1 -11 -4 -32 -4 -47 1 -15 4 -30 4 -33 -1 -3 -5 -18 -5 -33 -1 -15 5
-36 5 -47 1 -11 -4 -32 -4 -47 1 -15 4 -30 4 -33 -1 -3 -5 -18 -5 -33 -1 -15
5 -36 5 -47 1 -11 -4 -32 -4 -47 1 -15 4 -30 4 -33 -1 -3 -5 -16 -6 -28 -1
-12 5 -31 5 -42 1 -11 -4 -32 -4 -47 1 -20 5 -33 3 -47 -9z"/>
<path d="M5240 5032 c-8 -2 -82 -103 -163 -225 -82 -122 -222 -331 -313 -465
-90 -134 -164 -246 -164 -249 0 -4 -7 -13 -16 -22 -8 -9 -55 -77 -104 -151
-49 -74 -95 -142 -102 -150 -7 -8 -17 -22 -23 -32 -21 -39 -370 -553 -377
-556 -5 -2 -8 -8 -8 -14 0 -6 -13 -27 -30 -48 -16 -21 -30 -43 -30 -49 0 -6
-3 -11 -7 -11 -5 0 -26 -30 -48 -66 -22 -36 -48 -75 -58 -87 -10 -11 -28 -37
-40 -57 -44 -72 -3 -67 -510 -66 l-458 1 -27 -40 c-15 -22 -29 -42 -32 -45 -3
-3 -68 -99 -145 -215 -76 -115 -143 -211 -147 -213 -4 -2 -8 -8 -8 -13 0 -9
-37 -66 -50 -79 -3 -3 -50 -72 -105 -155 -54 -82 -102 -151 -107 -153 -4 -2
-8 -10 -8 -18 0 -8 -4 -14 -10 -14 -5 0 -10 -4 -10 -9 0 -8 -79 -131 -107
-166 -26 -33 -193 -288 -193 -295 0 -10 77 -18 91 -9 6 3 25 3 42 0 17 -4 54
-4 81 -1 28 3 65 3 81 0 17 -3 48 -3 70 0 22 3 51 3 65 0 14 -4 30 -3 37 2 6
5 14 5 16 1 3 -5 35 -6 71 -3 36 3 66 2 66 -3 0 -4 5 -5 10 -2 13 8 100 12
100 5 0 -3 30 -3 66 0 36 3 68 2 70 -2 3 -5 10 -5 16 -2 6 4 41 6 77 5 36 -1
72 -2 79 -2 26 2 167 3 192 2 71 -2 123 -1 127 3 3 2 17 1 33 -4 16 -5 32 -4
38 2 5 5 12 6 15 1 3 -5 35 -6 71 -3 36 3 66 2 66 -3 0 -4 5 -5 10 -2 13 8
100 12 100 5 0 -3 30 -3 66 0 36 3 68 2 70 -2 3 -5 10 -5 16 -2 12 8 137 8
145 1 2 -3 20 -1 39 3 20 5 34 4 34 -2 0 -5 5 -6 10 -3 13 8 100 12 100 5 0
-3 29 -3 65 0 36 3 65 3 65 -1 0 -3 18 -3 40 1 23 4 40 3 40 -2 0 -5 5 -6 11
-2 6 3 43 6 82 5 40 -1 79 -2 87 -3 8 0 43 2 78 4 34 1 62 -1 62 -5 0 -5 5 -5
10 -2 13 8 100 12 100 5 0 -3 29 -3 65 0 36 3 65 3 65 -1 0 -3 18 -3 40 1 23
4 40 3 40 -2 0 -5 5 -6 11 -2 6 3 43 6 82 5 40 -1 79 -2 87 -3 8 0 43 2 78 4
34 1 62 -1 62 -5 0 -5 5 -5 11 -1 14 8 144 8 159 -1 5 -3 10 -2 10 4 0 5 6 16
13 23 7 7 27 36 44 63 18 28 36 55 41 60 4 6 39 57 77 115 39 58 78 114 88
124 9 11 17 26 17 33 0 7 5 13 10 13 6 0 10 6 10 14 0 8 3 16 8 18 4 2 52 70
107 152 55 82 140 208 188 280 48 72 93 138 100 147 7 8 88 130 182 270 93
140 172 256 175 259 3 3 32 46 64 95 32 50 63 92 68 93 4 2 8 8 8 13 0 7 64
106 93 144 4 5 18 26 30 45 95 145 253 376 259 378 4 2 8 8 8 14 0 6 14 27 30
48 17 21 30 42 30 48 0 6 3 12 8 14 4 2 34 44 66 93 33 50 62 92 65 95 3 3 11
13 16 22 29 50 310 463 317 466 4 2 8 8 8 12 0 5 24 43 53 85 28 41 59 87 67
100 8 14 60 91 116 172 55 82 103 153 106 158 6 9 -2551 16 -2592 7z"/>
</g>
</svg>
